<?xml version="1.0" standalone="no"?>
<!DOCTYPE svg PUBLIC "-//W3C//DTD SVG 20010904//EN"
 "http://www.w3.org/TR/2001/REC-SVG-20010904/DTD/svg10.dtd">
<svg version="1.0" xmlns="http://www.w3.org/2000/svg"
 width="500.000000pt" height="500.000000pt" viewBox="0 0 500.000000 500.000000"
 preserveAspectRatio="xMidYMid meet">

<g transform="translate(0.000000,500.000000) scale(0.100000,-0.100000)"
fill="#000000" stroke="none">
<path d="M0 2500 l0 -2500 2500 0 2500 0 0 2500 0 2500 -2500 0 -2500 0 0
-2500z m1323 232 c135 -76 155 -245 42 -357 -102 -102 -275 -98 -374 10 -46
50 -56 78 -56 155 1 178 220 286 388 192z m-885 15 c6 -7 40 -77 75 -155 35
-79 67 -145 69 -148 3 -2 33 57 68 133 86 191 80 183 145 183 41 0 55 -4 55
-14 0 -8 -9 -18 -21 -21 -20 -7 -21 -11 -15 -143 11 -218 13 -233 47 -245 52
-20 31 -27 -81 -27 -106 0 -143 11 -80 24 29 5 30 7 29 58 -1 29 -4 90 -7 135
l-7 82 -69 -150 c-58 -127 -72 -150 -89 -147 -16 2 -36 37 -86 151 l-66 148
-7 -83 c-3 -46 -6 -106 -7 -135 -1 -49 0 -52 29 -58 57 -13 30 -25 -55 -25
-89 0 -105 8 -55 27 22 8 30 18 30 36 0 14 5 94 11 179 10 149 10 153 -10 169
-12 10 -21 22 -21 28 0 16 105 14 118 -2z m1332 -138 l135 -151 3 122 c3 132
-3 150 -45 150 -15 0 -23 5 -21 13 7 18 178 23 178 5 0 -8 -13 -19 -30 -25
l-30 -11 0 -200 c0 -175 -2 -201 -16 -206 -22 -8 -25 -5 -182 169 -75 82 -142
157 -149 165 -11 13 -13 -9 -11 -140 l3 -154 33 -10 c57 -16 35 -26 -58 -26
-53 0 -90 4 -90 10 0 6 9 10 20 10 33 0 40 39 40 214 0 167 -4 186 -42 186
-10 0 -18 7 -18 15 0 12 15 15 73 15 l72 0 135 -151z m614 135 c9 -23 7 -104
-2 -104 -5 0 -15 15 -23 33 -14 31 -16 32 -81 35 l-68 3 0 -76 0 -75 60 0 c55
0 61 2 70 25 18 47 30 27 30 -50 0 -60 -3 -75 -15 -75 -8 0 -15 9 -15 20 0 25
-40 42 -89 38 l-36 -3 -3 -68 c-4 -87 4 -97 75 -97 66 0 88 11 101 50 15 41
36 40 28 -1 -3 -17 -6 -44 -6 -60 l0 -29 -190 0 c-120 0 -190 4 -190 10 0 6
13 10 28 10 61 0 63 7 60 204 -3 189 -2 185 -51 200 -10 3 -15 10 -12 16 4 6
69 10 165 10 135 0 159 -2 164 -16z m286 1 c0 -8 -9 -15 -20 -15 -12 0 -20 -7
-20 -16 0 -16 85 -160 100 -169 11 -7 102 155 96 171 -3 8 -12 14 -21 14 -8 0
-15 7 -15 15 0 12 15 15 79 15 81 0 111 -13 69 -29 -34 -13 -59 -44 -122 -153
-56 -96 -57 -99 -54 -165 3 -67 3 -68 36 -78 59 -17 33 -25 -83 -25 -70 0
-115 4 -115 10 0 6 9 10 19 10 34 0 51 28 51 82 0 45 -7 62 -66 157 -75 119
-110 161 -135 161 -20 0 -32 14 -22 24 3 3 55 6 115 6 89 0 108 -3 108 -15z
m647 -9 c58 -35 68 -89 25 -137 l-28 -31 38 -38 c32 -31 38 -44 38 -79 0 -59
-22 -95 -73 -120 -38 -19 -61 -21 -200 -21 -158 0 -194 8 -114 26 l42 9 0 190
0 190 -25 3 c-40 5 -52 11 -45 23 5 7 56 10 159 7 127 -2 156 -6 183 -22z
m390 12 c6 -7 41 -100 79 -207 62 -176 71 -195 96 -205 51 -19 29 -26 -87 -26
-70 0 -115 4 -115 10 0 6 9 10 19 10 31 0 51 11 51 28 0 8 -10 41 -21 74 l-22
59 -65 -3 -65 -3 -23 -67 c-22 -66 -22 -68 -4 -78 10 -5 26 -10 34 -10 9 0 16
-4 16 -10 0 -6 -37 -10 -92 -9 -76 0 -90 2 -75 12 10 7 25 17 33 22 7 6 43 96
79 200 36 105 68 196 70 203 2 7 21 12 43 12 22 0 44 -6 49 -12z m463 -2 c0
-8 -16 -16 -40 -20 l-40 -6 0 -185 0 -185 72 0 c71 0 71 0 110 42 44 48 48 38
13 -32 l-25 -50 -170 0 c-166 0 -210 9 -137 28 l32 8 0 184 0 185 -30 9 c-38
13 -38 13 -30 25 4 7 52 11 126 11 94 0 119 -3 119 -14z m410 0 c0 -8 -16 -16
-40 -20 l-40 -6 0 -185 0 -185 72 0 c71 0 71 0 110 42 44 48 48 38 13 -32
l-25 -50 -170 0 c-166 0 -210 9 -137 28 l32 8 0 184 0 185 -30 9 c-38 13 -38
13 -30 25 4 7 52 11 126 11 94 0 119 -3 119 -14z"/>
<path d="M1104 2711 c-41 -25 -67 -82 -72 -156 -3 -51 1 -69 25 -115 36 -70
79 -100 144 -100 88 0 139 68 139 187 0 83 -28 145 -80 181 -42 28 -112 30
-156 3z"/>
<path d="M3158 2724 c-5 -4 -8 -38 -8 -76 l0 -68 40 0 c50 0 80 27 80 73 0 18
-6 41 -13 51 -13 18 -87 33 -99 20z"/>
<path d="M3150 2461 c0 -82 2 -91 22 -105 56 -40 118 2 118 79 0 26 -5 55 -11
67 -12 23 -66 48 -104 48 -25 0 -25 0 -25 -89z"/>
<path d="M3612 2590 l-21 -60 50 0 c27 0 49 2 49 5 0 15 -43 115 -50 115 -4 0
-17 -27 -28 -60z"/>
</g>
</svg>
